Coordinates
version=1
nRows=8
nColumns=34
inDegrees=yes

Units are S.I. units (second, meters, Newtons, ...)
If the header above contains a line with 'inDegrees', this indicates whether rotational values are in degrees (yes) or radians (no).

endheader
time	pelvis_tilt	pelvis_list	pelvis_rotation	pelvis_tx	pelvis_ty	pelvis_tz	hip_flexion_r	hip_adduction_r	hip_rotation_r	knee_angle_r	ankle_angle_r	subtalar_angle_r	mtp_angle_r	hip_flexion_l	hip_adduction_l	hip_rotation_l	knee_angle_l	ankle_angle_l	subtalar_angle_l	mtp_angle_l	lumbar_extension	lumbar_bending	lumbar_rotation	arm_flex_r	arm_add_r	arm_rot_r	elbow_flex_r	pro_sup_r	arm_flex_l	arm_add_l	arm_rot_l	elbow_flex_l	pro_sup_l
      0.00000000	     -9.74776334	     -1.83746166	     -4.37678156	     -0.13085598	      1.16386213	     -0.20251858	      3.92838024	      3.16688229	    -10.22257934	      2.94103863	     -0.15977383	     -6.10002601	      0.00000000	      1.34438692	     -0.64176077	     -2.57120188	      0.00000000	      1.65867469	      0.90725658	      0.00000000	      3.70779806	      4.51526760	      4.99066782	    -29.53001283	    -32.01492596	    -23.69913303	     35.06987229	     62.15581866	     -8.82424668	    -10.21911837	     31.53600131	     18.47901183	     60.34107706
      0.01666670	    -12.08051604	     -1.59047434	     -3.63648348	     -0.13063827	      1.15715029	     -0.20382177	      6.12799962	      3.34729261	    -10.31720389	      2.79557225	      2.43014382	     -2.52652021	      0.00000000	      4.13931388	      0.24669499	     -1.82987807	      0.00000000	      2.01078027	      3.71760125	      0.00000000	      7.05546760	      4.31498451	      4.17247622	    -30.22540819	    -32.68462253	    -24.79061395	     32.25478750	     62.04427050	     -8.35346767	    -10.03587147	     31.20558675	     18.66911363	     60.38572194
      0.03333330	    -12.29131188	     -0.63767373	     -3.47389000	     -0.12979845	      1.15892875	     -0.20134352	      5.92652314	      2.65291893	    -11.44729289	      2.04526873	      3.67053611	     -0.75767313	      0.00000000	      4.24024848	      1.37979071	     -3.04913649	      0.00000000	      2.11175063	      5.11666172	      0.00000000	      7.97627382	      2.91770033	      4.01322817	    -28.55846731	    -32.67774275	    -22.61999313	     29.48458554	     61.36775339	     -8.10150574	    -11.32851189	     33.56808710	     21.17002884	     60.88688856
      0.05000000	    -12.39485973	     -0.10229979	     -3.30706094	     -0.12632291	      1.15959599	     -0.20136232	      5.53665483	      2.23844218	    -12.53323098	      1.66808312	      3.88297503	      0.12685347	      0.00000000	      4.09426748	      2.07546890	     -3.01485501	      0.00000000	      1.76738611	      4.76726210	      0.00000000	      8.83779227	      1.97625604	      2.73510827	    -24.32144658	    -32.65496790	    -18.89411784	     25.93680615	     58.21415011	     -8.04763969	    -12.04598179	     37.30042514	     22.73517637	     60.18666608
      0.06666670	    -12.40592860	      0.05034598	     -3.20756866	     -0.12573047	      1.15356538	     -0.20053593	      4.96952411	      2.30311689	    -12.54712727	      1.20229776	      4.56981864	      0.15780313	      0.00000000	      3.93918547	      2.36496846	     -2.71473436	      0.00000000	      2.56025488	      5.15235389	      0.00000000	      9.16428542	      1.73303222	      1.73159462	    -22.42765159	    -31.79267133	    -18.73577169	     26.90058734	     56.95660572	     -7.28750693	    -11.75121687	     38.14396189	     23.14950710	     59.86756182
      0.08333330	    -12.61808079	      0.17152638	     -3.48606688	     -0.12888286	      1.14956535	     -0.19951340	      5.14929256	      2.28583228	    -12.46116706	      1.24863504	      5.54726158	      0.06064935	      0.00000000	      4.12559281	      2.51990287	     -2.53680711	      0.00000000	      3.38585733	      4.83860563	      0.00000000	      9.90220097	      1.57390306	      2.83181597	    -20.71526219	    -30.59546736	    -15.03623755	     25.01692562	     45.96992151	     -4.49506855	    -11.88812006	     45.03963684	     23.03162190	     55.50400991
      0.10000000	    -12.62764963	      0.18533849	     -3.49815712	     -0.12933904	      1.15177042	     -0.19771445	      5.10923861	      2.40077334	    -12.04914751	      1.14804786	      6.37194173	     -0.05688996	      0.00000000	      4.19253477	      2.49831999	     -1.97119502	      0.00000000	      4.47472061	      4.74565574	      0.00000000	     10.06032134	      1.53455031	      2.67991586	    -19.17652164	    -28.87632473	    -14.75417073	     25.63210662	     45.87924556	     -2.88398454	    -11.63764825	     44.98322072	     23.30843465	     55.40585856
      0.11666670	    -12.65429790	      0.21808391	     -3.70894492	     -0.12640020	      1.15745338	     -0.19747269	      5.16909746	      2.48674882	    -11.93332755	      1.10342012	      6.62192508	     -0.02567285	      0.00000000	      4.13504392	      2.43471696	     -1.83611591	      0.00000000	      4.84705356	      4.62028290	      0.00000000	     10.17899705	      1.53201459	      2.80886534	    -17.25869647	    -26.74893951	    -14.29128336	     26.05518821	     45.82132066	     -1.25576116	    -11.37799454	     45.04327113	     23.55331195	     55.32867572
